<?xml version="1.0" encoding="UTF-8" standalone="no"?><!DOCTYPE svg PUBLIC "-//W3C//DTD SVG 1.1//EN" "http://www.w3.org/Graphics/SVG/1.1/DTD/svg11.dtd"><svg width="100%" height="100%" viewBox="0 0 48 48" version="1.1" xmlns="http://www.w3.org/2000/svg" xmlns:xlink="http://www.w3.org/1999/xlink" xml:space="preserve" xmlns:serif="http://www.serif.com/" style="fill-rule:evenodd;clip-rule:evenodd;stroke-linejoin:round;stroke-miterlimit:2;"><rect id="acessible" x="0" y="0" width="48" height="48" style="fill:#14202f;fill-opacity:0;"/><g id="acessible1" serif:id="acessible"><g><path id="Mouse" d="M38.221,36.225c0.747,-2.787 -0.91,-5.656 -3.697,-6.403c-2.787,-0.747 -5.656,0.91 -6.403,3.697l-1.735,6.477c-0.598,2.23 0.727,4.525 2.957,5.123l2.02,0.541c2.23,0.597 4.525,-0.728 5.122,-2.958l1.736,-6.477Zm-1.235,-1.451c0.435,-1.624 -0.23,-3.216 -1.484,-3.552c-0.418,-0.112 -0.875,0.237 -1.02,0.778l-1.218,4.544c-0.145,0.542 0.077,1.073 0.495,1.185l1.515,0.406c0.418,0.112 0.875,-0.237 1.02,-0.779l0.692,-2.582Zm-5.752,2.278c0.421,0.11 0.876,-0.238 1.02,-0.778l1.218,-4.544c0.145,-0.542 -0.077,-1.073 -0.495,-1.185c-1.254,-0.336 -2.625,0.711 -3.061,2.335l-0.692,2.582c-0.145,0.542 0.077,1.072 0.495,1.184l1.515,0.406Z" style="fill:#79a7c2;"/><path id="Gamepad" d="M42.608,11.687c2.244,1.297 3.013,4.169 1.718,6.411l-0.028,0.046l-0.025,0.047l-0.6,1.039c-1.325,2.294 -4.263,3.082 -6.557,1.757c-1.15,-0.664 -1.921,-1.732 -2.238,-2.925l-6.581,-3.799c-1.191,0.321 -2.502,0.188 -3.652,-0.476c-2.294,-1.325 -3.081,-4.263 -1.757,-6.557l0.6,-1.039l0.028,-0.046l0.026,-0.047c1.294,-2.242 4.166,-3.012 6.41,-1.718l12.656,7.307Zm-14.524,-1.457l-2.078,-1.2l-0.6,1.039c-0.331,0.574 -0.134,1.308 0.439,1.639c0.574,0.332 1.308,0.135 1.639,-0.439l0.6,-1.039Zm11.432,6.6c-0.574,-0.331 -1.308,-0.134 -1.639,0.439c-0.332,0.574 -0.135,1.308 0.439,1.639c0.573,0.332 1.308,0.135 1.639,-0.439c0.331,-0.573 0.134,-1.308 -0.439,-1.639Zm3.278,-0.878c-0.573,-0.332 -1.308,-0.135 -1.639,0.439c-0.331,0.573 -0.134,1.308 0.439,1.639c0.574,0.331 1.308,0.134 1.64,-0.439c0.331,-0.574 0.134,-1.308 -0.44,-1.639Zm-4.157,-2.4c-0.573,-0.332 -1.308,-0.135 -1.639,0.439c-0.331,0.573 -0.134,1.308 0.439,1.639c0.574,0.331 1.308,0.134 1.64,-0.439c0.331,-0.574 0.134,-1.308 -0.44,-1.639Zm-12.631,-4.522l3.118,1.8c0.573,0.331 1.308,0.134 1.639,-0.439c0.331,-0.574 0.134,-1.308 -0.439,-1.639l-1.04,-0.6l-2.078,-1.2l-1.039,-0.6c-0.574,-0.332 -1.308,-0.135 -1.64,0.439c-0.331,0.573 -0.134,1.308 0.44,1.639l1.039,0.6Zm15.91,3.643c-0.574,-0.331 -1.308,-0.134 -1.639,0.439c-0.332,0.574 -0.135,1.308 0.439,1.64c0.573,0.331 1.308,0.134 1.639,-0.44c0.331,-0.573 0.134,-1.308 -0.439,-1.639Zm-12.632,-4.521l0.6,-1.04c0.331,-0.573 0.135,-1.308 -0.439,-1.639c-0.573,-0.331 -1.308,-0.134 -1.639,0.439l-0.6,1.04l2.078,1.2Z" style="fill:#79a7c2;"/><path id="Keyboard" d="M22.701,17.316l2.463,9.19c0.339,1.268 -0.414,2.574 -1.682,2.914l-17.428,4.669c-1.268,0.34 -2.574,-0.413 -2.914,-1.681l-2.462,-9.191l22.023,-5.901Zm-2.435,9.46l-12.75,3.416l0.621,2.318l12.751,-3.416l-0.622,-2.318Zm-13.937,3.623l-2.318,0.621l0.621,2.319l2.319,-0.621l-0.622,-2.319Zm17.387,-4.658l-2.318,0.621l0.621,2.318l2.318,-0.621l-0.621,-2.318Zm-7.886,-1.614l-2.319,0.621l0.622,2.318l2.318,-0.621l-0.621,-2.318Zm-3.478,0.931l-2.318,0.622l0.621,2.318l2.318,-0.621l-0.621,-2.319Zm10.432,-2.795l-2.318,0.621l0.621,2.319l2.318,-0.622l-0.621,-2.318Zm-3.477,0.932l-2.318,0.621l0.621,2.318l2.318,-0.621l-0.621,-2.318Zm-10.432,2.795l-2.318,0.621l0.621,2.319l2.318,-0.622l-0.621,-2.318Zm-3.491,0.88l-2.318,0.621l0.621,2.319l2.318,-0.621l-0.621,-2.319Zm16.469,-8.084l-5.796,1.553l0.621,2.318l5.796,-1.553l-0.621,-2.318Zm-17.387,4.659l-2.318,0.621l0.621,2.318l2.318,-0.621l-0.621,-2.318Zm3.477,-0.932l-2.318,0.621l0.621,2.318l2.318,-0.621l-0.621,-2.318Zm3.478,-0.932l-2.319,0.621l0.621,2.319l2.319,-0.622l-0.621,-2.318Zm3.477,-0.932l-2.318,0.622l0.621,2.318l2.318,-0.621l-0.621,-2.319Z" style="fill:#79a7c2;"/></g></g></svg>