<?xml version="1.0" encoding="UTF-8" standalone="no"?><!DOCTYPE svg PUBLIC "-//W3C//DTD SVG 1.1//EN" "http://www.w3.org/Graphics/SVG/1.1/DTD/svg11.dtd"><svg width="100%" height="100%" viewBox="0 0 42 31" version="1.1" xmlns="http://www.w3.org/2000/svg" xmlns:xlink="http://www.w3.org/1999/xlink" xml:space="preserve" xmlns:serif="http://www.serif.com/" style="fill-rule:evenodd;clip-rule:evenodd;stroke-linejoin:round;stroke-miterlimit:2;"><g><g><text x="6.579px" y="25.82px" style="font-family:'OpenSans-Regular', 'Open Sans', sans-serif;font-size:29.965px;fill:#e80c55;stroke:#e80c55;stroke-width:0.24px;">AI</text><path d="M36.175,4.684c0,-1.987 -1.613,-3.6 -3.6,-3.6l-24.676,0c-1.987,0 -3.6,1.613 -3.6,3.6l0,21.572c0,1.987 1.613,3.6 3.6,3.6l24.676,0c1.987,0 3.6,-1.613 3.6,-3.6l0,-21.572Z" style="fill:none;stroke:#e80c55;stroke-width:2px;stroke-linecap:round;stroke-miterlimit:1.5;"/></g><g><path d="M4.299,10.539l-3.115,0" style="fill:none;stroke:#e80c55;stroke-width:2px;stroke-linecap:round;stroke-miterlimit:1.5;"/><path d="M4.299,16.651l-2.307,0" style="fill:none;stroke:#e80c55;stroke-width:2px;stroke-linecap:round;stroke-miterlimit:1.5;"/><path d="M4.299,6.111l-2.307,0" style="fill:none;stroke:#e80c55;stroke-width:2px;stroke-linecap:round;stroke-miterlimit:1.5;"/><path d="M4.299,25.4l-3.115,0" style="fill:none;stroke:#e80c55;stroke-width:2px;stroke-linecap:round;stroke-miterlimit:1.5;"/><path d="M37.391,21.211l2.234,0" style="fill:none;stroke:#e80c55;stroke-width:2px;stroke-linecap:round;stroke-miterlimit:1.5;"/><path d="M37.391,10.539l3.552,0" style="fill:none;stroke:#e80c55;stroke-width:2px;stroke-linecap:round;stroke-miterlimit:1.5;"/><path d="M36.23,16.651l3.753,0" style="fill:none;stroke:#e80c55;stroke-width:2px;stroke-linecap:round;stroke-miterlimit:1.5;"/></g></g></svg>