<?xml version="1.0" encoding="UTF-8" standalone="no"?><!DOCTYPE svg PUBLIC "-//W3C//DTD SVG 1.1//EN" "http://www.w3.org/Graphics/SVG/1.1/DTD/svg11.dtd"><svg width="100%" height="100%" viewBox="0 0 24 24" version="1.1" xmlns="http://www.w3.org/2000/svg" xmlns:xlink="http://www.w3.org/1999/xlink" xml:space="preserve" xmlns:serif="http://www.serif.com/" style="fill-rule:evenodd;clip-rule:evenodd;stroke-linejoin:round;stroke-miterlimit:2;"><rect id="Rect" x="0" y="0" width="24" height="24" style="fill:none;"/><path d="M17.933,8.18l0,9.364c0,0.862 -0.699,1.561 -1.561,1.561l-0.78,0l0,3.192c0,0.94 -0.763,1.703 -1.703,1.703c-0.939,0 -1.702,-0.763 -1.702,-1.703l0,-3.192l-1.419,0l0,3.192c0,0.94 -0.763,1.703 -1.703,1.703c-0.939,0 -1.702,-0.763 -1.702,-1.703l0,-3.192l-0.781,0c-0.861,0 -1.56,-0.699 -1.56,-1.561l0,-9.364l12.911,0Zm0.284,1.206c0,-0.94 0.763,-1.703 1.702,-1.703c0.94,0 1.703,0.763 1.703,1.703l0,6.03c0,0.94 -0.763,1.703 -1.703,1.703c-0.939,0 -1.702,-0.763 -1.702,-1.703l0,-6.03Zm-13.479,0c0,-0.94 -0.763,-1.703 -1.703,-1.703c-0.94,0 -1.702,0.763 -1.702,1.703l0,6.03c0,0.94 0.762,1.703 1.702,1.703c0.94,0 1.703,-0.763 1.703,-1.703l0,-6.03Zm13.195,-1.703l-12.911,0c0,-2.142 1.226,-4.021 3.066,-5.071l-1.02,-1.841c-0.124,-0.223 -0.043,-0.504 0.179,-0.627c0.223,-0.124 0.504,-0.043 0.627,0.18l1.046,1.887c0.785,-0.313 1.649,-0.487 2.557,-0.487c0.908,0 1.773,0.174 2.557,0.487l1.046,-1.887c0.124,-0.223 0.404,-0.304 0.627,-0.18c0.223,0.123 0.303,0.404 0.18,0.627l-1.021,1.841c1.84,1.05 3.067,2.929 3.067,5.071Zm-9.435,-3.192c0.156,0 0.283,0.127 0.283,0.284c0,0.156 -0.127,0.284 -0.283,0.284c-0.157,0 -0.284,-0.128 -0.284,-0.284c0,-0.157 0.127,-0.284 0.284,-0.284Zm5.959,0c0.156,0 0.284,0.127 0.284,0.284c0,0.156 -0.128,0.284 -0.284,0.284c-0.157,0 -0.284,-0.128 -0.284,-0.284c0,-0.157 0.127,-0.284 0.284,-0.284Z" style="fill:#fff;"/></svg>