<?xml version="1.0" encoding="UTF-8" standalone="no"?><!DOCTYPE svg PUBLIC "-//W3C//DTD SVG 1.1//EN" "http://www.w3.org/Graphics/SVG/1.1/DTD/svg11.dtd"><svg width="100%" height="100%" viewBox="0 0 24 24" version="1.1" xmlns="http://www.w3.org/2000/svg" xmlns:xlink="http://www.w3.org/1999/xlink" xml:space="preserve" xmlns:serif="http://www.serif.com/" style="fill-rule:evenodd;clip-rule:evenodd;stroke-linejoin:round;stroke-miterlimit:2;"><rect id="Rect" x="0" y="0" width="24" height="24" style="fill:none;"/><clipPath id="_clip1"><rect x="0" y="0" width="24" height="24"/></clipPath><g clip-path="url(#_clip1)"><path d="M1.142,6.569c0.003,-0.437 0.243,-0.839 0.626,-1.049c1.91,-1.069 7.66,-4.291 9.571,-5.36c0.193,-0.108 0.42,-0.161 0.647,-0.16c0.142,-0.001 0.284,0.02 0.42,0.065c0.08,0.026 0.158,0.059 0.231,0.1c1.91,1.069 7.64,4.261 9.551,5.33c0.154,0.088 0.272,0.192 0.377,0.33l0,0.001c0.184,0.215 0.291,0.491 0.293,0.783l0,10.782c0,0.435 -0.239,0.837 -0.628,1.056l-9.603,5.391c-0.389,0.216 -0.865,0.216 -1.254,0l-9.603,-5.392c-0.384,-0.212 -0.625,-0.616 -0.628,-1.055l0,-10.822Zm17.813,9.386c-1.378,2.415 -3.977,4.045 -6.955,4.045c-4.416,0 -8,-3.584 -8,-8c0,-4.416 3.584,-8 8,-8c2.93,0 5.494,1.578 6.888,3.93l-3.474,1.986c-0.703,-1.149 -1.97,-1.916 -3.414,-1.916c-2.208,0 -4,1.792 -4,4c0,2.208 1.792,4 4,4c1.469,0 2.754,-0.793 3.449,-1.974l3.506,1.929Z" style="fill:#fff;"/></g></svg>