<?xml version="1.0" encoding="UTF-8" standalone="no"?><!DOCTYPE svg PUBLIC "-//W3C//DTD SVG 1.1//EN" "http://www.w3.org/Graphics/SVG/1.1/DTD/svg11.dtd"><svg width="100%" height="100%" viewBox="0 0 29 31" version="1.1" xmlns="http://www.w3.org/2000/svg" xmlns:xlink="http://www.w3.org/1999/xlink" xml:space="preserve" xmlns:serif="http://www.serif.com/" style="fill-rule:evenodd;clip-rule:evenodd;stroke-linecap:round;stroke-linejoin:round;stroke-miterlimit:1.5;"><g><g><path d="M19.782,2.012l-2.896,-0.776l-5.588,20.852l2.897,0.776l5.587,-20.852Z" style="fill:#e80c55;stroke:#e80c55;stroke-width:2px;"/><path d="M14.195,22.864l-2.853,-0.765l0.288,4.542l2.565,-3.777Z" style="fill:#e80c55;stroke:#e80c55;stroke-width:2px;"/></g><path d="M7.158,7.223c1.309,-0.103 3.246,-0.196 4.551,-0.039m9.53,1.541c1.56,0.543 3.031,1.333 4.339,2.4c2.09,1.706 2.987,4.418 0.638,6.401c-2.306,1.947 -5.17,2.507 -8.109,2.888" style="fill:none;stroke:#e80c55;stroke-width:1.51px;stroke-dasharray:1.51,1.51;"/><path d="M10.023,29.517c-2.293,-0.243 -7.089,-0.333 -8.405,-2.397c-0.423,-0.662 -0.993,-1.901 -0.486,-2.677c0.441,-0.673 1.281,-1.18 1.949,-1.579c1.518,-0.907 3.208,-1.382 4.962,-1.695" style="fill:none;stroke:#e80c55;stroke-width:1.51px;stroke-dasharray:1.51,1.51;"/></g></svg>