<?xml version="1.0" encoding="UTF-8" standalone="no"?><!DOCTYPE svg PUBLIC "-//W3C//DTD SVG 1.1//EN" "http://www.w3.org/Graphics/SVG/1.1/DTD/svg11.dtd"><svg width="100%" height="100%" viewBox="0 0 37 37" version="1.1" xmlns="http://www.w3.org/2000/svg" xmlns:xlink="http://www.w3.org/1999/xlink" xml:space="preserve" xmlns:serif="http://www.serif.com/" style="fill-rule:evenodd;clip-rule:evenodd;stroke-linecap:round;stroke-linejoin:round;stroke-miterlimit:1.5;"><g><path d="M13.536,16.349c-0.164,-0.411 0.218,-1.133 0.36,-1.56c0.206,-0.615 -0.15,-1.068 0.6,-1.2c0.394,-0.069 1.183,0.014 1.577,0.052c0.134,0.013 0.37,0.078 0.479,-0.03c0.155,-0.154 0.187,-0.451 0.185,-0.66c-0.006,-0.602 -0.503,-1.226 -0.763,-1.751c-0.051,-0.103 0.211,-0.424 0.274,-0.496c0.28,-0.317 0.674,-0.513 1.067,-0.651c0.614,-0.215 1.304,-0.247 1.902,-0.49c0.57,-0.231 0.994,-0.668 1.615,-0.813c0.613,-0.143 1.219,-0.07 1.771,-0.426l-0.015,0.001c0.416,-0.433 0.87,-0.939 1.122,-1.492c0.022,-0.049 -0.275,-0.213 -0.301,-0.225c-0.287,-0.134 -0.759,0.264 -0.873,-0.099c-0.132,-0.421 -0.011,-1.247 0.075,-1.667c0.013,-0.062 0.017,-0.344 -0.075,-0.349c-0.28,-0.015 -0.483,0.625 -0.53,0.81c-0.091,0.354 -0.037,0.732 -0.134,1.075c-0.061,0.215 -0.136,1.845 -0.536,2.051c-0.666,0.345 -1.808,-0.8 -2.16,-0.96c-0.54,-0.245 -0.408,-0.633 -0.24,-1.2c0.111,-0.373 1.179,-1.358 1.422,-1.654c0.551,-0.668 1.219,-2.332 2.178,-2.426c0.46,-0.044 1.78,0.503 2.16,0.72c0.322,0.184 1.586,0.562 1.92,0.72c1.588,0.753 3.035,1.93 4.32,3.12c0.715,0.663 0.701,1.3 1.2,2.16c0.172,0.296 1.174,1.097 1.2,1.44c0.044,0.564 0.583,0.957 0.96,1.44c0.275,0.353 -2.147,0.403 -1.901,0.781c0.269,0.412 0.307,0.901 0.735,1.204c0.296,0.209 0.609,0.122 0.941,0.185c0.373,0.071 0.694,0.341 0.873,0.673c0.072,0.134 0.12,0.277 0.15,0.425c0.098,0.474 0.188,1.379 -0.198,1.756c-0.219,0.212 -0.451,0.301 -0.722,0.416c-0.095,0.04 1.168,0.737 1.082,0.8l0.24,0.96c-0.235,0.218 0.031,0.784 -0.24,0.96c-0.292,0.191 -0.34,3.778 -0.96,3.6c-1.358,-0.39 -3.27,-3.798 -3.96,-3.96c-0.418,-0.156 -0.625,-0.006 -0.6,0.48c1.931,1.609 3.102,3.7 3.84,4.44c2.557,2.565 -9.663,11.618 -12,10.32c-0.376,-0.209 -0.88,-3.361 -1.92,-3.84c-0.993,-0.457 -5.76,-0.561 -6.24,-0.48c-2.213,0.378 -4.356,-4.349 -4.08,-6c0.309,-1.844 2.287,-6.408 5.76,-6.96c2.153,-0.341 2.898,-0.425 5.04,-0.48c1.266,-0.031 1.874,2.159 3.12,2.16c1.157,0.002 0.418,-0.366 1.44,-0.749c0.884,-0.331 3.319,0.12 4.32,-0.211c1.022,-0.337 0.599,-1.455 0.512,-1.574c-0.111,-0.151 -0.078,-0.581 -0.243,-0.719c-0.486,-0.406 -1.402,-0.041 -1.955,0.01c-0.363,0.034 -0.705,-0.001 -1.044,-0.134c-0.268,-0.105 -0.483,-0.278 -0.778,-0.311c-0.526,-0.057 -1.106,0.126 -1.586,-0.174c-0.46,-0.288 -0.566,-0.878 -0.767,-1.338c-0.16,-0.369 -0.455,-0.678 -0.781,-0.91c-0.222,-0.158 -0.673,-0.462 -0.957,-0.27c-0.327,0.222 -0.185,0.749 0.066,0.974c0.522,0.467 0.725,0.764 1.413,1.086c0.925,0.434 0.286,1.294 -0.48,1.44c-0.118,0.023 -0.408,-0.242 -0.12,-0.6c0.316,-0.39 -1.61,-1.257 -2.04,-1.44c-0.489,-0.208 -0.252,-0.965 -0.717,-0.677c-0.254,0.158 -0.412,0.427 -0.664,0.59c-0.261,0.169 -0.587,0.153 -0.831,0.313c-0.211,0.137 -0.282,0.452 -0.446,0.643c-0.191,0.223 -0.479,0.32 -0.667,0.541c-0.33,0.39 -0.279,1.069 -0.831,1.137c-0.984,0.121 -2.43,-0.171 -2.564,-0.507Z" style="fill:#e80c55;"/><path d="M17.236,9.155c0.021,0.608 -0.94,0.52 -1.56,0.48c-0.145,-0.01 0.05,-0.921 -0.12,-0.96c-0.562,-0.131 -1.542,0.485 -1.68,0.24c-0.18,-0.32 0.406,-0.814 0.6,-1.2c0.183,-0.367 0.467,-0.26 0.72,-0.48c0.078,-0.069 0.178,-0.386 0.24,-0.48c0.187,-0.289 0.06,-0.78 0.36,-0.72c0.3,0.06 1.129,0.18 0.96,0.6c-0.198,0.489 0.432,1.332 0.72,1.92c0.109,0.222 -0.246,0.446 -0.24,0.6Z" style="fill:#e80c55;"/><circle cx="18.456" cy="18.48" r="17.31" style="fill:none;stroke:#e80c55;stroke-width:2px;"/></g></svg>