<?xml version="1.0" encoding="UTF-8" standalone="no"?><!DOCTYPE svg PUBLIC "-//W3C//DTD SVG 1.1//EN" "http://www.w3.org/Graphics/SVG/1.1/DTD/svg11.dtd"><svg width="100%" height="100%" viewBox="0 0 39 33" version="1.1" xmlns="http://www.w3.org/2000/svg" xmlns:xlink="http://www.w3.org/1999/xlink" xml:space="preserve" xmlns:serif="http://www.serif.com/" style="fill-rule:evenodd;clip-rule:evenodd;stroke-linejoin:round;stroke-miterlimit:2;"><g><rect x="17.723" y="6.118" width="2.954" height="2.954" style="fill:#e80c55;"/><rect x="14.769" y="3.164" width="2.954" height="2.954" style="fill:#e80c55;"/><rect x="2.954" y="3.164" width="2.954" height="2.954" style="fill:#e80c55;"/><rect x="32.492" y="3.164" width="2.954" height="2.954" style="fill:#e80c55;"/><rect x="32.492" y="14.98" width="2.954" height="2.954" style="fill:#e80c55;"/><rect x="29.538" y="17.934" width="2.954" height="2.954" style="fill:#e80c55;"/><rect x="26.585" y="20.887" width="2.954" height="2.954" style="fill:#e80c55;"/><rect x="23.631" y="23.841" width="2.954" height="2.954" style="fill:#e80c55;"/><rect x="20.677" y="26.795" width="2.954" height="2.954" style="fill:#e80c55;"/><rect x="17.723" y="29.749" width="2.954" height="2.954" style="fill:#e80c55;"/><rect x="35.446" y="6.118" width="2.954" height="8.862" style="fill:#e80c55;"/><rect x="2.954" y="14.98" width="2.954" height="2.954" style="fill:#e80c55;"/><rect x="5.908" y="17.934" width="2.954" height="2.954" style="fill:#e80c55;"/><rect x="8.862" y="20.887" width="2.954" height="2.954" style="fill:#e80c55;"/><rect x="11.815" y="23.841" width="2.954" height="2.954" style="fill:#e80c55;"/><rect x="14.769" y="26.795" width="2.954" height="2.954" style="fill:#e80c55;"/><rect x="0" y="6.118" width="2.954" height="8.862" style="fill:#e80c55;"/><rect x="0" y="6.118" width="2.954" height="8.862" style="fill:#e80c55;"/><rect x="20.677" y="3.164" width="2.954" height="2.954" style="fill:#e80c55;"/><rect x="23.631" y="0.21" width="2.954" height="2.954" style="fill:#e80c55;"/><rect x="23.631" y="0.21" width="8.862" height="2.954" style="fill:#e80c55;"/><rect x="5.908" y="0.21" width="8.862" height="2.954" style="fill:#e80c55;"/></g></svg>