<?xml version="1.0" encoding="UTF-8" standalone="no"?><!DOCTYPE svg PUBLIC "-//W3C//DTD SVG 1.1//EN" "http://www.w3.org/Graphics/SVG/1.1/DTD/svg11.dtd"><svg width="100%" height="100%" viewBox="0 0 63 57" version="1.1" xmlns="http://www.w3.org/2000/svg" xmlns:xlink="http://www.w3.org/1999/xlink" xml:space="preserve" xmlns:serif="http://www.serif.com/" style="fill-rule:evenodd;clip-rule:evenodd;stroke-linejoin:round;stroke-miterlimit:2;"><path id="Itch" d="M8.254,0.482c-2.74,1.627 -8.138,7.828 -8.189,9.455l0,2.692c0,3.412 3.19,6.411 6.086,6.411c3.477,0 6.375,-2.882 6.375,-6.302c0,3.42 2.798,6.302 6.276,6.302c3.478,0 6.186,-2.882 6.186,-6.302c0,3.42 2.975,6.302 6.453,6.302l0.063,0c3.478,0 6.453,-2.882 6.453,-6.302c0,3.42 2.709,6.302 6.186,6.302c3.478,0 6.276,-2.882 6.276,-6.302c0,3.42 2.898,6.302 6.375,6.302c2.896,0 6.086,-2.998 6.086,-6.411l0,-2.692c-0.051,-1.627 -5.449,-7.829 -8.189,-9.455c-8.516,-0.299 -14.42,-0.351 -23.219,-0.35c-8.798,0.001 -20.794,0.138 -23.218,0.35l0,0Zm16.69,16.951c-0.333,0.58 -0.744,1.11 -1.224,1.576c-1.312,1.283 -3.112,2.079 -5.096,2.079c-1.908,0.002 -3.743,-0.745 -5.106,-2.08c-0.476,-0.466 -0.837,-0.964 -1.168,-1.544l-0.002,0.001c-0.331,0.581 -0.792,1.079 -1.268,1.545c-1.364,1.334 -3.199,2.081 -5.107,2.079c-0.239,0 -0.488,-0.066 -0.689,-0.135c-0.28,2.911 -0.398,5.693 -0.439,7.722l-0.001,0.011c-0.005,1.03 -0.01,1.877 -0.015,3.054c0.054,6.108 -0.605,19.798 2.693,23.161c5.111,1.192 14.515,1.735 23.95,1.738l0.001,0c9.435,-0.003 18.839,-0.546 23.95,-1.738c3.298,-3.364 2.64,-17.053 2.693,-23.161c-0.005,-1.177 -0.01,-2.024 -0.015,-3.054l-0.001,-0.012c-0.041,-2.029 -0.159,-4.811 -0.439,-7.722c-0.201,0.069 -0.45,0.135 -0.689,0.135c-1.908,0.002 -3.742,-0.745 -5.107,-2.078c-0.476,-0.467 -0.937,-0.964 -1.268,-1.546l-0.002,-0.001c-0.331,0.58 -0.692,1.079 -1.168,1.544c-1.364,1.335 -3.198,2.082 -5.106,2.08c-1.984,0 -3.783,-0.796 -5.096,-2.079c-0.479,-0.466 -0.891,-0.996 -1.224,-1.576c-0.329,0.579 -0.737,1.11 -1.212,1.576c-1.364,1.334 -3.199,2.081 -5.107,2.08c-0.069,0 -0.139,-0.003 -0.208,-0.006l-0.002,0c-0.069,0.003 -0.138,0.006 -0.208,0.006c-1.908,0.001 -3.743,-0.746 -5.107,-2.08c-0.475,-0.466 -0.883,-0.997 -1.212,-1.576l-0.001,0.001Zm-5.244,6.782l-0.001,0.002l0.004,0c2.077,0.005 3.922,0 6.208,2.495c1.799,-0.189 3.679,-0.283 5.561,-0.28l0.001,0c1.882,-0.002 3.762,0.091 5.561,0.28c2.286,-2.495 4.131,-2.491 6.208,-2.495l0.004,0l-0.001,-0.002c0.982,0 4.907,0 7.642,7.681l2.938,10.539c2.177,7.839 -0.697,8.031 -4.282,8.038c-5.317,-0.198 -8.261,-4.059 -8.261,-7.919c-2.943,0.482 -6.376,0.723 -9.809,0.723l-0.002,0c-3.433,0 -6.866,-0.241 -9.809,-0.723c0,3.86 -2.944,7.721 -8.26,7.919c-3.585,-0.007 -6.459,-0.198 -4.282,-8.038l2.939,-10.538c2.735,-7.682 6.66,-7.682 7.641,-7.682l0,0Zm11.772,6.037l0,0.001c-0.005,0.005 -5.597,5.141 -6.603,6.967l3.662,-0.147l0,3.194c0,0.149 1.47,0.088 2.941,0.02l0.001,0c1.471,0.068 2.94,0.129 2.94,-0.02l0,-3.194l3.662,0.147c-1.005,-1.826 -6.602,-6.967 -6.602,-6.967l0,-0.001l-0.001,0l0,0Z" style="fill:#79a7c2;fill-rule:nonzero;"/></svg>