<?xml version="1.0" encoding="UTF-8" standalone="no"?><!DOCTYPE svg PUBLIC "-//W3C//DTD SVG 1.1//EN" "http://www.w3.org/Graphics/SVG/1.1/DTD/svg11.dtd"><svg width="100%" height="100%" viewBox="0 0 26 26" version="1.1" xmlns="http://www.w3.org/2000/svg" xmlns:xlink="http://www.w3.org/1999/xlink" xml:space="preserve" xmlns:serif="http://www.serif.com/" style="fill-rule:evenodd;clip-rule:evenodd;stroke-linecap:round;stroke-linejoin:round;stroke-miterlimit:1.5;"><g><path d="M9.309,11.243c-0.113,-0.285 0.151,-0.786 0.25,-1.082c0.143,-0.426 -0.104,-0.74 0.416,-0.832c0.273,-0.047 0.82,0.01 1.093,0.036c0.093,0.009 0.257,0.054 0.332,-0.02c0.108,-0.107 0.13,-0.313 0.128,-0.458c-0.004,-0.417 -0.348,-0.85 -0.529,-1.214c-0.035,-0.071 0.147,-0.294 0.19,-0.344c0.194,-0.219 0.468,-0.355 0.74,-0.451c0.426,-0.149 0.904,-0.171 1.319,-0.34c0.395,-0.16 0.689,-0.463 1.119,-0.563c0.425,-0.099 0.845,-0.049 1.228,-0.296l-0.011,0.001c0.289,-0.3 0.604,-0.651 0.778,-1.034c0.016,-0.034 -0.19,-0.148 -0.208,-0.156c-0.199,-0.093 -0.527,0.183 -0.606,-0.069c-0.091,-0.292 -0.007,-0.864 0.052,-1.155c0.009,-0.043 0.012,-0.239 -0.052,-0.242c-0.194,-0.011 -0.334,0.433 -0.367,0.561c-0.063,0.246 -0.026,0.508 -0.093,0.745c-0.042,0.149 -0.094,1.279 -0.371,1.422c-0.462,0.239 -1.254,-0.554 -1.498,-0.665c-0.374,-0.17 -0.283,-0.439 -0.166,-0.832c0.077,-0.259 0.817,-0.942 0.986,-1.147c0.382,-0.463 0.845,-1.616 1.509,-1.682c0.319,-0.03 1.234,0.349 1.498,0.5c0.223,0.127 1.099,0.389 1.331,0.499c1.101,0.522 2.104,1.338 2.995,2.163c0.495,0.459 0.486,0.901 0.832,1.497c0.119,0.205 0.813,0.76 0.831,0.998c0.031,0.391 0.405,0.664 0.666,0.999c0.191,0.244 -1.488,0.279 -1.318,0.541c0.187,0.286 0.213,0.625 0.51,0.835c0.205,0.144 0.422,0.084 0.652,0.128c0.259,0.049 0.481,0.236 0.605,0.466c0.05,0.093 0.083,0.192 0.104,0.295c0.068,0.329 0.13,0.956 -0.137,1.217c-0.152,0.147 -0.313,0.209 -0.501,0.289c-0.065,0.027 0.81,0.511 0.75,0.554l0.167,0.666c-0.163,0.151 0.021,0.543 -0.167,0.665c-0.202,0.133 -0.235,2.619 -0.665,2.496c-0.941,-0.27 -2.267,-2.633 -2.745,-2.745c-0.29,-0.108 -0.434,-0.004 -0.416,0.333c1.338,1.115 2.15,2.565 2.662,3.078c1.772,1.778 -6.699,8.054 -8.319,7.154c-0.261,-0.145 -0.61,-2.33 -1.331,-2.662c-0.688,-0.317 -3.993,-0.389 -4.326,-0.333c-1.534,0.262 -3.02,-3.015 -2.828,-4.159c0.214,-1.279 1.585,-4.443 3.993,-4.825c1.492,-0.237 2.009,-0.295 3.494,-0.333c0.877,-0.022 1.299,1.497 2.163,1.497c0.802,0.002 0.289,-0.253 0.998,-0.519c0.613,-0.229 2.301,0.083 2.995,-0.146c0.708,-0.234 0.415,-1.009 0.355,-1.091c-0.077,-0.105 -0.055,-0.403 -0.169,-0.499c-0.337,-0.281 -0.972,-0.028 -1.355,0.007c-0.252,0.024 -0.489,-0.001 -0.724,-0.093c-0.186,-0.073 -0.335,-0.193 -0.539,-0.215c-0.365,-0.04 -0.767,0.087 -1.1,-0.121c-0.319,-0.2 -0.392,-0.609 -0.531,-0.928c-0.111,-0.255 -0.316,-0.47 -0.542,-0.63c-0.154,-0.11 -0.466,-0.321 -0.663,-0.188c-0.227,0.154 -0.129,0.52 0.045,0.676c0.362,0.323 0.503,0.529 0.98,0.752c0.641,0.301 0.198,0.897 -0.333,0.999c-0.082,0.016 -0.283,-0.168 -0.083,-0.416c0.219,-0.271 -1.116,-0.872 -1.414,-0.999c-0.339,-0.144 -0.175,-0.668 -0.497,-0.469c-0.176,0.11 -0.286,0.296 -0.461,0.409c-0.18,0.117 -0.406,0.106 -0.576,0.217c-0.146,0.095 -0.195,0.314 -0.309,0.446c-0.132,0.155 -0.332,0.222 -0.462,0.375c-0.229,0.27 -0.194,0.741 -0.576,0.788c-0.682,0.084 -1.685,-0.118 -1.778,-0.351Z" style="fill:#79a7c2;"/><path d="M11.874,6.256c0.015,0.421 -0.651,0.36 -1.081,0.332c-0.101,-0.007 0.034,-0.638 -0.083,-0.665c-0.39,-0.091 -1.069,0.336 -1.165,0.166c-0.125,-0.222 0.281,-0.564 0.416,-0.832c0.127,-0.254 0.324,-0.18 0.499,-0.332c0.054,-0.048 0.123,-0.268 0.166,-0.333c0.13,-0.201 0.042,-0.541 0.25,-0.499c0.208,0.041 0.783,0.124 0.665,0.416c-0.137,0.339 0.3,0.923 0.5,1.331c0.075,0.153 -0.171,0.309 -0.167,0.416Z" style="fill:#79a7c2;"/><circle cx="12.72" cy="12.72" r="12" style="fill:none;stroke:#79a7c2;stroke-width:1.39px;"/></g></svg>