<?xml version="1.0" encoding="UTF-8" standalone="no"?><!DOCTYPE svg PUBLIC "-//W3C//DTD SVG 1.1//EN" "http://www.w3.org/Graphics/SVG/1.1/DTD/svg11.dtd"><svg width="100%" height="100%" viewBox="0 0 539 536" version="1.1" xmlns="http://www.w3.org/2000/svg" xmlns:xlink="http://www.w3.org/1999/xlink" xml:space="preserve" xmlns:serif="http://www.serif.com/" style="fill-rule:evenodd;clip-rule:evenodd;stroke-linejoin:round;stroke-miterlimit:2;"><path d="M29.3,1.4c-13.6,4.3 -24.7,16.7 -27.3,30.7c-1.4,7 -1.4,464.7 0,471.8c2.3,12.1 11.3,23.5 22.7,28.9l5.8,2.7l478,0l5.8,-2.7c11.4,-5.4 20.4,-16.8 22.7,-28.9c1.4,-7.2 1.4,-464.8 0,-472c-2.3,-12 -11.3,-23.3 -22.7,-28.7l-5.8,-2.7l-237.5,-0.2c-194.4,-0.1 -238.3,0.1 -241.7,1.1Zm110.9,77.8c9.4,4.7 17.6,13 22.1,22.5c3,6.4 3.2,7.4 3.2,18.4c0,11.3 -0.1,11.6 -3.8,19.1c-20.2,41 -79.1,31.7 -85.7,-13.5c-2.4,-16.5 6.9,-35.7 21.6,-44.3c9,-5.3 13.9,-6.5 25,-6.2c9.3,0.3 10.7,0.6 17.6,4Zm238.4,116.9c44.6,4.9 68.1,28.6 75.9,76.4c2.7,16.2 3.5,47.2 2.8,116.2l-0.6,67.3l-38.8,0l-38.8,0l-0.3,-76.8c-0.4,-75 -0.4,-76.9 -2.5,-84.4c-4.2,-14.7 -10.1,-22.6 -20.6,-27.4c-5.7,-2.7 -7.1,-2.9 -18.2,-2.9c-13.9,0 -20.5,1.6 -28.1,6.8c-9.1,6.2 -14.3,15.3 -18.1,31.2c-1.4,6.1 -1.7,16.5 -2,80.2l-0.4,73.3l-39,0l-38.9,0l0,-254l75,0l0,17c0,18.1 0.7,20.2 4.3,14.1c3.6,-6.1 11,-14.2 18,-19.7c19.7,-15.4 40.9,-20.6 70.3,-17.3Zm-218.6,132.9l0,127l-39,0l-39,0l0,-254l78,0l0,127Z" style="fill:#e00e54;fill-rule:nonzero;"/></svg>