<?xml version="1.0" encoding="UTF-8" standalone="no"?><!DOCTYPE svg PUBLIC "-//W3C//DTD SVG 1.1//EN" "http://www.w3.org/Graphics/SVG/1.1/DTD/svg11.dtd"><svg width="100%" height="100%" viewBox="0 0 48 48" version="1.1" xmlns="http://www.w3.org/2000/svg" xmlns:xlink="http://www.w3.org/1999/xlink" xml:space="preserve" xmlns:serif="http://www.serif.com/" style="fill-rule:evenodd;clip-rule:evenodd;stroke-linejoin:round;stroke-miterlimit:2;"><rect id="NonLinear" x="0" y="0" width="48" height="48" style="fill:#14202f;fill-opacity:0;"/><g><rect id="NonLinear1" serif:id="NonLinear" x="21.6" y="26.4" width="4.8" height="21.6" style="fill:#79a7c2;"/><path d="M21.805,27.864c0.42,-0.798 1.261,-1.344 2.228,-1.344c0.747,0 1.418,0.326 1.879,0.847l-3.743,1.826c-0.148,-0.434 -0.271,-0.877 -0.364,-1.329Zm-1.414,-5.241c1.074,-0.613 2.317,-0.963 3.642,-0.963c1.111,0 2.166,0.246 3.111,0.689c-0.234,0.793 -0.413,1.586 -0.532,2.368c-0.751,-0.457 -1.635,-0.717 -2.579,-0.717c-1.013,0 -1.956,0.299 -2.745,0.817c-0.217,-0.817 -0.518,-1.546 -0.897,-2.194Zm3.136,-5.765l0.506,-0.013c1.781,0 3.473,0.383 4.995,1.072c-0.391,0.69 -0.74,1.395 -1.047,2.111c-1.207,-0.533 -2.544,-0.828 -3.948,-0.828c-1.932,0 -3.734,0.558 -5.251,1.522c-0.647,-0.541 -1.394,-0.974 -2.233,-1.305c1.499,-1.17 3.279,-1.997 5.22,-2.359c0.429,0.313 0.826,0.652 1.194,1.015c0.173,-0.408 0.361,-0.815 0.564,-1.215Zm-16.06,-2.727c-0.142,0.868 -0.214,1.76 -0.214,2.669c0,0.673 0.04,1.337 0.122,1.993c-0.832,0.105 -1.69,0.242 -2.575,0.407l-4.08,-1.68l3.665,-3.12c1.068,-0.123 2.095,-0.213 3.082,-0.269Zm8.465,0.473c1.141,0.239 2.186,0.556 3.138,0.951c-1.907,0.702 -3.623,1.798 -5.051,3.191c-0.435,-0.069 -0.887,-0.121 -1.353,-0.155c0.811,-1.54 1.926,-2.895 3.266,-3.987Zm-6.607,-0.544c1.402,-0.025 2.714,0.023 3.935,0.141c-1.213,1.258 -2.207,2.727 -2.919,4.348l-0.656,0.028l-0.502,0.035c-0.076,-0.593 -0.113,-1.198 -0.113,-1.812c0,-0.937 0.086,-1.854 0.255,-2.74Zm17.471,-2.051c1.791,0.389 3.443,1.15 4.871,2.202c-0.525,0.593 -1.014,1.213 -1.465,1.854c-1.661,-0.793 -3.496,-1.276 -5.431,-1.374c0.598,-0.919 1.274,-1.817 2.025,-2.682Zm7.604,-6.035c1.156,1.102 2.135,2.387 2.889,3.808c-1.519,0.788 -2.901,1.777 -4.13,2.909c-1.391,-1.069 -2.975,-1.899 -4.692,-2.428c1.697,-1.619 3.683,-3.079 5.933,-4.289Zm1.719,-0.853c1.29,-0.592 2.657,-1.102 4.095,-1.521l4.186,1.625l-2.709,2.961c-0.954,0.206 -1.871,0.488 -2.748,0.84c-0.751,-1.437 -1.705,-2.752 -2.824,-3.905Z" style="fill:#79a7c2;"/></g></svg>