<?xml version="1.0" encoding="UTF-8" standalone="no"?>
<!DOCTYPE svg PUBLIC "-//W3C//DTD SVG 1.1//EN" "http://www.w3.org/Graphics/SVG/1.1/DTD/svg11.dtd">
<svg width="100%" height="100%" viewBox="0 0 500 500" version="1.1" xmlns="http://www.w3.org/2000/svg" xmlns:xlink="http://www.w3.org/1999/xlink" xml:space="preserve" xmlns:serif="http://www.serif.com/" style="fill-rule:evenodd;clip-rule:evenodd;stroke-linejoin:round;stroke-miterlimit:2;">
    <rect id="PlayStore" x="0" y="0" width="500" height="500" style="fill:rgb(128,168,197);fill-opacity:0;"/>
    <g id="PlayStore1" serif:id="PlayStore">
        <path d="M83.978,448.449L271.162,261.264L348.314,332.738L133.943,449.668C117.789,457.802 100.324,457.485 84.477,448.768L83.978,448.449ZM65.761,70.982L250.398,242.028L64.959,427.467C61.744,420.81 60,413.414 60,405.773L60,94.227C60,85.984 62.03,78.027 65.761,70.982ZM419.526,206.105C453.479,226.153 453.479,273.847 419.526,293.895L374.51,318.449L291.177,241.25L359.217,173.209L419.526,206.105ZM87.363,49.645C102.68,42.484 118.842,42.728 133.943,50.332L333.335,159.092L270.413,222.014L85.471,50.685L87.363,49.645Z" style="fill:rgb(128,168,197);"/>
    </g>
</svg>
