<?xml version="1.0" encoding="UTF-8" standalone="no"?><!DOCTYPE svg PUBLIC "-//W3C//DTD SVG 1.1//EN" "http://www.w3.org/Graphics/SVG/1.1/DTD/svg11.dtd"><svg width="100%" height="100%" viewBox="0 0 38 38" version="1.1" xmlns="http://www.w3.org/2000/svg" xmlns:xlink="http://www.w3.org/1999/xlink" xml:space="preserve" xmlns:serif="http://www.serif.com/" style="fill-rule:evenodd;clip-rule:evenodd;stroke-miterlimit:1.5;"><path d="M21,2.046c-1.513,-0.207 -3.047,-0.207 -4.56,0c0.174,1.268 0.115,2.526 -0.175,3.773c-0.63,0.12 -1.249,0.286 -1.854,0.496c-0.876,-0.934 -1.555,-1.994 -2.039,-3.179c-1.414,0.577 -2.742,1.344 -3.949,2.28c0.785,1.011 1.363,2.13 1.735,3.355c-0.485,0.418 -0.939,0.872 -1.358,1.357c-1.225,-0.372 -2.343,-0.95 -3.355,-1.734c-0.936,1.206 -1.703,2.535 -2.28,3.949c1.186,0.483 2.246,1.163 3.18,2.038c-0.211,0.605 -0.377,1.225 -0.497,1.854c-1.247,0.291 -2.504,0.349 -3.773,0.175c-0.207,1.513 -0.207,3.048 0,4.56c1.269,-0.173 2.526,-0.115 3.773,0.176c0.12,0.629 0.286,1.249 0.497,1.854c-0.934,0.875 -1.994,1.554 -3.18,2.038c0.577,1.414 1.344,2.743 2.28,3.949c1.012,-0.784 2.13,-1.362 3.355,-1.734c0.419,0.485 0.873,0.938 1.358,1.357c-0.372,1.225 -0.95,2.344 -1.735,3.355c1.207,0.936 2.535,1.703 3.949,2.28c0.484,-1.185 1.163,-2.245 2.039,-3.179c0.605,0.21 1.224,0.376 1.854,0.496c0.29,1.247 0.349,2.505 0.175,3.773c1.513,0.207 3.047,0.207 4.56,0c-0.174,-1.268 -0.115,-2.526 0.175,-3.773c0.63,-0.12 1.249,-0.286 1.854,-0.496c0.876,0.934 1.555,1.994 2.039,3.179c1.414,-0.577 2.742,-1.344 3.949,-2.28c-0.785,-1.011 -1.363,-2.13 -1.735,-3.355c0.485,-0.419 0.939,-0.872 1.358,-1.357c1.225,0.372 2.343,0.95 3.355,1.734c0.936,-1.206 1.703,-2.535 2.28,-3.949c-1.186,-0.484 -2.246,-1.163 -3.18,-2.038c0.211,-0.605 0.377,-1.225 0.497,-1.854c1.247,-0.291 2.504,-0.349 3.773,-0.176c0.207,-1.512 0.207,-3.047 0,-4.56c-1.269,0.174 -2.526,0.116 -3.773,-0.175c-0.12,-0.629 -0.286,-1.249 -0.497,-1.854c0.934,-0.875 1.994,-1.555 3.18,-2.038c-0.577,-1.414 -1.344,-2.743 -2.28,-3.949c-1.012,0.784 -2.13,1.362 -3.355,1.734c-0.419,-0.485 -0.873,-0.939 -1.358,-1.357c0.372,-1.225 0.95,-2.344 1.735,-3.355c-1.207,-0.936 -2.535,-1.703 -3.949,-2.28c-0.484,1.185 -1.163,2.245 -2.039,3.179c-0.605,-0.21 -1.224,-0.376 -1.854,-0.496c-0.29,-1.247 -0.349,-2.505 -0.175,-3.773Zm-2.28,10.26c3.523,0 6.384,2.861 6.384,6.384c0,3.524 -2.861,6.384 -6.384,6.384c-3.523,0 -6.384,-2.86 -6.384,-6.384c0,-3.523 2.861,-6.384 6.384,-6.384Z" style="fill:none;stroke:#e80c55;stroke-width:2px;"/></svg>