<?xml version="1.0" encoding="UTF-8" standalone="no"?><!DOCTYPE svg PUBLIC "-//W3C//DTD SVG 1.1//EN" "http://www.w3.org/Graphics/SVG/1.1/DTD/svg11.dtd"><svg width="100%" height="100%" viewBox="0 0 72 72" version="1.1" xmlns="http://www.w3.org/2000/svg" xmlns:xlink="http://www.w3.org/1999/xlink" xml:space="preserve" xmlns:serif="http://www.serif.com/" style="fill-rule:evenodd;clip-rule:evenodd;stroke-linejoin:round;stroke-miterlimit:2;"><path id="Steam" d="M0.076,32.776c1.624,-18.361 17.066,-32.776 35.848,-32.776c19.869,0 36,16.131 36,36c0,19.869 -16.131,36 -36,36c-16.527,0 -30.468,-11.161 -34.682,-26.36l13.753,5.519c0.913,4.627 4.996,8.121 9.889,8.121c5.564,0 10.08,-4.517 10.08,-10.08c0,-0.143 -0.003,-0.284 -0.009,-0.425l12.116,-8.936c0.044,0.001 0.089,0.001 0.133,0.001c7.286,0 13.2,-5.915 13.2,-13.2c0,-7.285 -5.914,-13.2 -13.2,-13.2c-7.285,0 -13.2,5.915 -13.2,13.2c0,0.045 0.001,0.09 0.001,0.135l-8.875,12.348c-0.082,-0.002 -0.164,-0.003 -0.246,-0.003c-2.081,0 -4.015,0.632 -5.621,1.714l-19.187,-8.058Zm17.785,19.533c1.194,2.692 3.891,4.571 7.023,4.571c4.239,0 7.68,-3.441 7.68,-7.68c0,-4.239 -3.441,-7.68 -7.68,-7.68c-0.974,0 -1.907,0.182 -2.765,0.514l4.205,1.766l-0.02,0.07c2.356,0.627 4.095,2.777 4.095,5.33c0,3.043 -2.471,5.514 -5.515,5.514c-0.585,0 -1.15,-0.091 -1.68,-0.261l0,0l0,0c-0.252,-0.08 -0.496,-0.178 -0.73,-0.293l-4.613,-1.851Zm29.463,-34.549c4.901,0 8.88,3.979 8.88,8.88c0,4.901 -3.979,8.88 -8.88,8.88c-4.901,0 -8.88,-3.979 -8.88,-8.88c0,-4.901 3.979,-8.88 8.88,-8.88Zm0,2.16c3.709,0 6.72,3.011 6.72,6.72c0,3.709 -3.011,6.72 -6.72,6.72c-3.709,0 -6.72,-3.011 -6.72,-6.72c0,-3.709 3.011,-6.72 6.72,-6.72Z" style="fill:#79a7c2;"/></svg>