<?xml version="1.0" encoding="UTF-8" standalone="no"?><!DOCTYPE svg PUBLIC "-//W3C//DTD SVG 1.1//EN" "http://www.w3.org/Graphics/SVG/1.1/DTD/svg11.dtd"><svg width="100%" height="100%" viewBox="0 0 56 58" version="1.1" xmlns="http://www.w3.org/2000/svg" xmlns:xlink="http://www.w3.org/1999/xlink" xml:space="preserve" xmlns:serif="http://www.serif.com/" style="fill-rule:evenodd;clip-rule:evenodd;stroke-linejoin:round;stroke-miterlimit:2;"><rect id="Timer" x="0" y="0" width="55.244" height="57.6" style="fill:#79a7c2;fill-opacity:0;"/><g id="Timer1" serif:id="Timer"><path d="M33.6,0l2.4,0c1.329,0.004 2.4,1.078 2.4,2.4l0,4.8c0,1.325 -1.075,2.4 -2.4,2.4l-2.4,0l0,2c8.473,3.706 14.4,12.167 14.4,22c0,13.246 -10.754,24 -24,24c-13.246,0 -24,-10.754 -24,-24c0,-9.833 5.927,-18.294 14.4,-22l0,-2l-2.4,0c-1.325,0 -2.4,-1.075 -2.4,-2.4l0,-4.8c0,-1.322 1.071,-2.396 2.4,-2.4l21.6,0Zm-9.6,14.4c10.597,0 19.2,8.603 19.2,19.2c0,10.597 -8.603,19.2 -19.2,19.2c-10.597,0 -19.2,-8.603 -19.2,-19.2c0,-10.597 8.603,-19.2 19.2,-19.2Z" style="fill:#79a7c2;"/><path d="M54.791,24.317c-1.532,-5.081 -4.298,-9.705 -8.05,-13.458l-4.798,4.798c2.962,2.961 5.144,6.609 6.353,10.619l6.495,-1.959Z" style="fill:#79a7c2;"/><path d="M24,30.206l8.485,-8.485c0.937,-0.937 2.458,-0.937 3.394,0c0.937,0.936 0.937,2.457 0,3.394l-8.485,8.485l8.485,8.485c0.937,0.937 0.937,2.458 0,3.394c-0.936,0.937 -2.457,0.937 -3.394,0l-8.485,-8.485l0,13.573c-9.371,0 -16.967,-7.596 -16.967,-16.967c0,-9.371 7.596,-16.967 16.967,-16.967l0,13.573Zm0,0l-8.485,-8.485c-0.937,-0.937 -2.458,-0.937 -3.394,0c-0.937,0.936 -0.937,2.457 0,3.394l8.485,8.485l-8.485,8.485c-0.937,0.937 -0.937,2.458 0,3.394c0.936,0.937 2.457,0.937 3.394,0l8.485,-8.485l0,-6.788Z" style="fill:#79a7c2;"/></g></svg>