<?xml version="1.0" encoding="UTF-8" standalone="no"?><!DOCTYPE svg PUBLIC "-//W3C//DTD SVG 1.1//EN" "http://www.w3.org/Graphics/SVG/1.1/DTD/svg11.dtd"><svg width="100%" height="100%" viewBox="0 0 32 26" version="1.1" xmlns="http://www.w3.org/2000/svg" xmlns:xlink="http://www.w3.org/1999/xlink" xml:space="preserve" xmlns:serif="http://www.serif.com/" style="fill-rule:evenodd;clip-rule:evenodd;stroke-linejoin:round;stroke-miterlimit:2;"><path id="twitter" d="M9.801,25.405c11.773,0 18.215,-9.764 18.215,-18.216c0,-0.275 0,-0.549 -0.012,-0.824c1.248,-0.899 2.335,-2.035 3.196,-3.321c-1.149,0.512 -2.385,0.849 -3.683,1.011c1.323,-0.786 2.335,-2.047 2.822,-3.545c-1.236,0.736 -2.61,1.261 -4.071,1.548c-1.173,-1.249 -2.834,-2.023 -4.669,-2.023c-3.533,0 -6.405,2.872 -6.405,6.405c0,0.499 0.063,0.986 0.163,1.461c-5.319,-0.262 -10.038,-2.822 -13.197,-6.692c-0.549,0.949 -0.862,2.047 -0.862,3.221c0,2.222 1.137,4.182 2.847,5.331c-1.049,-0.037 -2.035,-0.325 -2.897,-0.799l0,0.087c0,3.097 2.21,5.694 5.132,6.28c-0.537,0.15 -1.099,0.225 -1.686,0.225c-0.412,0 -0.811,-0.037 -1.198,-0.112c0.811,2.547 3.183,4.394 5.98,4.444c-2.197,1.723 -4.956,2.747 -7.953,2.747c-0.512,0 -1.024,-0.025 -1.523,-0.087c2.822,1.798 6.193,2.859 9.801,2.859" style="fill:#e10c55;fill-rule:nonzero;"/></svg>