<?xml version="1.0" encoding="UTF-8" standalone="no"?><!DOCTYPE svg PUBLIC "-//W3C//DTD SVG 1.1//EN" "http://www.w3.org/Graphics/SVG/1.1/DTD/svg11.dtd"><svg width="100%" height="100%" viewBox="0 0 24 24" version="1.1" xmlns="http://www.w3.org/2000/svg" xmlns:xlink="http://www.w3.org/1999/xlink" xml:space="preserve" xmlns:serif="http://www.serif.com/" style="fill-rule:evenodd;clip-rule:evenodd;stroke-linejoin:round;stroke-miterlimit:2;"><rect x="0" y="0" width="24" height="24" style="fill:none;"/><path id="path2" d="M19.866,19.162l-4.29,-7.216l4.29,-7.216l2.068,7.216l-2.068,7.216Zm-9.548,-0.704l-5.39,-5.346l8.58,0l4.29,7.216l-7.48,-1.87Zm0,-13.046l7.458,-1.87l-4.29,7.216l-8.58,0l5.412,-5.346Zm10.956,-5.412l-9.746,2.53l-1.452,2.486l-2.926,-0.022l-7.15,6.952l7.15,6.952l2.926,-0.022l1.452,2.486l9.746,2.552l2.618,-9.482l-1.474,-2.464l1.474,-2.464l-2.618,-9.504Z" style="fill:#fff;fill-rule:nonzero;"/></svg>