<?xml version="1.0" standalone="no"?><!-- Generator: Gravit.io --><svg xmlns="http://www.w3.org/2000/svg" xmlns:xlink="http://www.w3.org/1999/xlink" style="isolation:isolate" viewBox="470 60 500 300" width="500" height="300"><g style="isolation:isolate" id="Title"><defs><filter id="39tfRbqVlMQKfUEz57LgOlPxRclUFZ4P" x="-200%" y="-200%" width="400%" height="400%"><feOffset xmlns="http://www.w3.org/2000/svg" in="SourceAlpha" result="offOut" dx="4" dy="4"/><feGaussianBlur xmlns="http://www.w3.org/2000/svg" in="offOut" result="blurOut" stdDeviation="2.5"/><feComponentTransfer xmlns="http://www.w3.org/2000/svg" in="blurOut" result="opacOut"><feFuncA xmlns="http://www.w3.org/2000/svg" type="table" tableValues="0 0.5"/></feComponentTransfer><feBlend xmlns="http://www.w3.org/2000/svg" in="SourceGraphic" in2="opacOut" mode="normal"/></filter></defs><g filter="url(#39tfRbqVlMQKfUEz57LgOlPxRclUFZ4P)"><path d=" M 676.5 209.3 L 676.5 128.3 L 705.6 128.3 L 705.6 134 L 684.1 134 L 684.1 164.5 L 702 164.5 L 702 170.1 L 684.1 170.1 L 684.1 209.3 L 676.5 209.3 Z  M 728.1 210.2 L 728.1 210.2 Q 722.5 210.2 719.1 208 L 719.1 208 L 719.1 208 Q 715.7 205.8 714.1 200.9 L 714.1 200.9 L 714.1 200.9 Q 712.5 196 712.5 187.6 L 712.5 187.6 L 712.5 173 L 712.5 173 Q 712.5 164.5 714.15 159.65 L 714.15 159.65 L 714.15 159.65 Q 715.8 154.8 719.25 152.7 L 719.25 152.7 L 719.25 152.7 Q 722.7 150.6 728.2 150.6 L 728.2 150.6 L 728.2 150.6 Q 734.2 150.6 737.45 153.15 L 737.45 153.15 L 737.45 153.15 Q 740.7 155.7 741.95 160.8 L 741.95 160.8 L 741.95 160.8 Q 743.2 165.9 743.2 174.5 L 743.2 174.5 L 743.1 179.7 L 719.8 179.7 L 719.8 188.3 L 719.8 188.3 Q 719.8 194.4 720.5 197.9 L 720.5 197.9 L 720.5 197.9 Q 721.2 201.4 723 203.05 L 723 203.05 L 723 203.05 Q 724.8 204.7 728.1 204.7 L 728.1 204.7 L 728.1 204.7 Q 731.9 204.7 733.95 202.3 L 733.95 202.3 L 733.95 202.3 Q 736 199.9 736 193.6 L 736 193.6 L 736 189.6 L 743.1 189.6 L 743.1 192.8 L 743.1 192.8 Q 743.1 201.2 739.6 205.7 L 739.6 205.7 L 739.6 205.7 Q 736.1 210.2 728.1 210.2 L 728.1 210.2 Z  M 719.8 175.5 L 736 175.5 L 736 170.7 L 736 170.7 Q 736 165.5 735.45 162.5 L 735.45 162.5 L 735.45 162.5 Q 734.9 159.5 733.2 157.8 L 733.2 157.8 L 733.2 157.8 Q 731.5 156.1 728.1 156.1 L 728.1 156.1 L 728.1 156.1 Q 725 156.1 723.2 157.45 L 723.2 157.45 L 723.2 157.45 Q 721.4 158.8 720.6 162.15 L 720.6 162.15 L 720.6 162.15 Q 719.8 165.5 719.8 171.6 L 719.8 171.6 L 719.8 175.5 Z  M 753.6 209.3 L 753.6 151.5 L 761 151.5 L 761 159.4 L 761 159.4 Q 763.6 155.1 767.15 153 L 767.15 153 L 767.15 153 Q 770.7 150.9 774.3 150.9 L 774.3 150.9 L 774.3 150.9 Q 775.2 150.9 775.6 151 L 775.6 151 L 775.6 158.8 L 775.6 158.8 Q 773.8 158.2 772 158.2 L 772 158.2 L 772 158.2 Q 765.1 158.2 761 164.9 L 761 164.9 L 761 209.3 L 753.6 209.3 Z  M 783.3 209.3 L 783.3 151.5 L 790.7 151.5 L 790.7 159.4 L 790.7 159.4 Q 793.3 155.1 796.85 153 L 796.85 153 L 796.85 153 Q 800.4 150.9 804 150.9 L 804 150.9 L 804 150.9 Q 804.9 150.9 805.3 151 L 805.3 151 L 805.3 158.8 L 805.3 158.8 Q 803.5 158.2 801.7 158.2 L 801.7 158.2 L 801.7 158.2 Q 794.8 158.2 790.7 164.9 L 790.7 164.9 L 790.7 209.3 L 783.3 209.3 Z  M 827 210.2 L 827 210.2 Q 821.4 210.2 818 208 L 818 208 L 818 208 Q 814.6 205.8 813 200.9 L 813 200.9 L 813 200.9 Q 811.4 196 811.4 187.6 L 811.4 187.6 L 811.4 173 L 811.4 173 Q 811.4 164.5 813.05 159.65 L 813.05 159.65 L 813.05 159.65 Q 814.7 154.8 818.15 152.7 L 818.15 152.7 L 818.15 152.7 Q 821.6 150.6 827.1 150.6 L 827.1 150.6 L 827.1 150.6 Q 833.1 150.6 836.35 153.15 L 836.35 153.15 L 836.35 153.15 Q 839.6 155.7 840.85 160.8 L 840.85 160.8 L 840.85 160.8 Q 842.1 165.9 842.1 174.5 L 842.1 174.5 L 842 179.7 L 818.7 179.7 L 818.7 188.3 L 818.7 188.3 Q 818.7 194.4 819.4 197.9 L 819.4 197.9 L 819.4 197.9 Q 820.1 201.4 821.9 203.05 L 821.9 203.05 L 821.9 203.05 Q 823.7 204.7 827 204.7 L 827 204.7 L 827 204.7 Q 830.8 204.7 832.85 202.3 L 832.85 202.3 L 832.85 202.3 Q 834.9 199.9 834.9 193.6 L 834.9 193.6 L 834.9 189.6 L 842 189.6 L 842 192.8 L 842 192.8 Q 842 201.2 838.5 205.7 L 838.5 205.7 L 838.5 205.7 Q 835 210.2 827 210.2 L 827 210.2 Z  M 818.7 175.5 L 834.9 175.5 L 834.9 170.7 L 834.9 170.7 Q 834.9 165.5 834.35 162.5 L 834.35 162.5 L 834.35 162.5 Q 833.8 159.5 832.1 157.8 L 832.1 157.8 L 832.1 157.8 Q 830.4 156.1 827 156.1 L 827 156.1 L 827 156.1 Q 823.9 156.1 822.1 157.45 L 822.1 157.45 L 822.1 157.45 Q 820.3 158.8 819.5 162.15 L 819.5 162.15 L 819.5 162.15 Q 818.7 165.5 818.7 171.6 L 818.7 171.6 L 818.7 175.5 Z  M 852.8 143.5 L 852.8 133.6 L 860.1 133.6 L 860.1 143.5 L 852.8 143.5 Z  M 852.8 209.3 L 852.8 151.5 L 860.1 151.5 L 860.1 209.3 L 852.8 209.3 Z  M 872.9 209.3 L 872.9 151.5 L 880.3 151.5 L 880.3 159.4 L 880.3 159.4 Q 882.9 155.1 886.45 153 L 886.45 153 L 886.45 153 Q 890 150.9 893.6 150.9 L 893.6 150.9 L 893.6 150.9 Q 894.5 150.9 894.9 151 L 894.9 151 L 894.9 158.8 L 894.9 158.8 Q 893.1 158.2 891.3 158.2 L 891.3 158.2 L 891.3 158.2 Q 884.4 158.2 880.3 164.9 L 880.3 164.9 L 880.3 209.3 L 872.9 209.3 Z  M 912.1 210.2 L 912.1 210.2 Q 906.9 210.2 903.7 206.5 L 903.7 206.5 L 903.7 206.5 Q 900.5 202.8 900.5 197.3 L 900.5 197.3 L 900.5 197.3 Q 900.5 191.6 902.7 187.95 L 902.7 187.95 L 902.7 187.95 Q 904.9 184.3 909.6 181.4 L 909.6 181.4 L 909.6 181.4 Q 914.3 178.5 923.8 174.2 L 923.8 174.2 L 923.8 170.1 L 923.8 170.1 Q 923.8 164.7 923.15 161.7 L 923.15 161.7 L 923.15 161.7 Q 922.5 158.7 920.95 157.4 L 920.95 157.4 L 920.95 157.4 Q 919.4 156.1 916.6 156.1 L 916.6 156.1 L 916.6 156.1 Q 908.5 156.1 908.5 166 L 908.5 166 L 908.5 168.1 L 901.3 167.9 L 901.4 166.2 L 901.4 166.2 Q 901.7 158 905.6 154.3 L 905.6 154.3 L 905.6 154.3 Q 909.5 150.6 917 150.6 L 917 150.6 L 917 150.6 Q 924.6 150.6 927.85 155.2 L 927.85 155.2 L 927.85 155.2 Q 931.1 159.8 931.1 169.7 L 931.1 169.7 L 931.1 197.8 L 931.1 197.8 Q 931.1 200.6 931.25 204.2 L 931.25 204.2 L 931.25 204.2 Q 931.4 207.8 931.6 209.3 L 931.6 209.3 L 925.1 209.3 L 924 201.3 L 924 201.3 Q 922.7 205.1 919.55 207.65 L 919.55 207.65 L 919.55 207.65 Q 916.4 210.2 912.1 210.2 L 912.1 210.2 Z  M 914.4 204 L 914.4 204 Q 917.4 204 919.85 201.95 L 919.85 201.95 L 919.85 201.95 Q 922.3 199.9 923.8 197.1 L 923.8 197.1 L 923.8 179.1 L 923.8 179.1 Q 916.8 182.8 913.9 184.65 L 913.9 184.65 L 913.9 184.65 Q 911 186.5 909.4 189 L 909.4 189 L 909.4 189 Q 907.8 191.5 907.8 195.5 L 907.8 195.5 L 907.8 195.5 Q 907.8 199.8 909.65 201.9 L 909.65 201.9 L 909.65 201.9 Q 911.5 204 914.4 204 L 914.4 204 Z  M 502.6 212.8 L 502.6 207.1 L 502.6 207.1 Q 508.3 207.1 510.85 206.05 L 510.85 206.05 L 510.85 206.05 Q 513.4 205 514.2 202.2 L 514.2 202.2 L 514.2 202.2 Q 515 199.4 515 193 L 515 193 L 515 128.3 L 522.6 128.3 L 522.6 193.4 L 522.6 193.4 Q 522.6 200.6 521.35 204.7 L 521.35 204.7 L 521.35 204.7 Q 520.1 208.8 516.6 210.8 L 516.6 210.8 L 516.6 210.8 Q 513.1 212.8 506.3 212.8 L 506.3 212.8 L 502.6 212.8 Z  M 549.6 210.2 L 549.6 210.2 Q 541 210.2 537.6 204.85 L 537.6 204.85 L 537.6 204.85 Q 534.2 199.5 534.2 188.4 L 534.2 188.4 L 534.2 172.4 L 534.2 172.4 Q 534.2 161.3 537.6 155.95 L 537.6 155.95 L 537.6 155.95 Q 541 150.6 549.6 150.6 L 549.6 150.6 L 549.6 150.6 Q 558.2 150.6 561.6 155.95 L 561.6 155.95 L 561.6 155.95 Q 565 161.3 565 172.4 L 565 172.4 L 565 188.4 L 565 188.4 Q 565 199.5 561.6 204.85 L 561.6 204.85 L 561.6 204.85 Q 558.2 210.2 549.6 210.2 L 549.6 210.2 Z  M 549.6 204.7 L 549.6 204.7 Q 553.2 204.7 554.95 202.8 L 554.95 202.8 L 554.95 202.8 Q 556.7 200.9 557.2 197.6 L 557.2 197.6 L 557.2 197.6 Q 557.7 194.3 557.7 188.8 L 557.7 188.8 L 557.7 172 L 557.7 172 Q 557.7 166.5 557.2 163.2 L 557.2 163.2 L 557.2 163.2 Q 556.7 159.9 554.95 158 L 554.95 158 L 554.95 158 Q 553.2 156.1 549.6 156.1 L 549.6 156.1 L 549.6 156.1 Q 546 156.1 544.25 158 L 544.25 158 L 544.25 158 Q 542.5 159.9 542 163.15 L 542 163.15 L 542 163.15 Q 541.5 166.4 541.5 172 L 541.5 172 L 541.5 188.8 L 541.5 188.8 Q 541.5 194.4 542 197.65 L 542 197.65 L 542 197.65 Q 542.5 200.9 544.25 202.8 L 544.25 202.8 L 544.25 202.8 Q 546 204.7 549.6 204.7 L 549.6 204.7 Z  M 585.1 210.2 L 585.1 210.2 Q 579.9 210.2 576.7 206.5 L 576.7 206.5 L 576.7 206.5 Q 573.5 202.8 573.5 197.3 L 573.5 197.3 L 573.5 197.3 Q 573.5 191.6 575.7 187.95 L 575.7 187.95 L 575.7 187.95 Q 577.9 184.3 582.6 181.4 L 582.6 181.4 L 582.6 181.4 Q 587.3 178.5 596.8 174.2 L 596.8 174.2 L 596.8 170.1 L 596.8 170.1 Q 596.8 164.7 596.15 161.7 L 596.15 161.7 L 596.15 161.7 Q 595.5 158.7 593.95 157.4 L 593.95 157.4 L 593.95 157.4 Q 592.4 156.1 589.6 156.1 L 589.6 156.1 L 589.6 156.1 Q 581.5 156.1 581.5 166 L 581.5 166 L 581.5 168.1 L 574.3 167.9 L 574.4 166.2 L 574.4 166.2 Q 574.7 158 578.6 154.3 L 578.6 154.3 L 578.6 154.3 Q 582.5 150.6 590 150.6 L 590 150.6 L 590 150.6 Q 597.6 150.6 600.85 155.2 L 600.85 155.2 L 600.85 155.2 Q 604.1 159.8 604.1 169.7 L 604.1 169.7 L 604.1 197.8 L 604.1 197.8 Q 604.1 200.6 604.25 204.2 L 604.25 204.2 L 604.25 204.2 Q 604.4 207.8 604.6 209.3 L 604.6 209.3 L 598.1 209.3 L 597 201.3 L 597 201.3 Q 595.7 205.1 592.55 207.65 L 592.55 207.65 L 592.55 207.65 Q 589.4 210.2 585.1 210.2 L 585.1 210.2 Z  M 587.4 204 L 587.4 204 Q 590.4 204 592.85 201.95 L 592.85 201.95 L 592.85 201.95 Q 595.3 199.9 596.8 197.1 L 596.8 197.1 L 596.8 179.1 L 596.8 179.1 Q 589.8 182.8 586.9 184.65 L 586.9 184.65 L 586.9 184.65 Q 584 186.5 582.4 189 L 582.4 189 L 582.4 189 Q 580.8 191.5 580.8 195.5 L 580.8 195.5 L 580.8 195.5 Q 580.8 199.8 582.65 201.9 L 582.65 201.9 L 582.65 201.9 Q 584.5 204 587.4 204 L 587.4 204 Z  M 596 140.1 L 596 140.1 Q 594.3 140.1 592.9 139.4 L 592.9 139.4 L 592.9 139.4 Q 591.5 138.7 589.5 137.4 L 589.5 137.4 L 589.5 137.4 Q 587.8 136.3 586.75 135.8 L 586.75 135.8 L 586.75 135.8 Q 585.7 135.3 584.6 135.3 L 584.6 135.3 L 584.6 135.3 Q 581.4 135.3 581.4 139.3 L 581.4 139.3 L 576.9 139.3 L 576.9 139.3 Q 576.9 136 578.45 133.25 L 578.45 133.25 L 578.45 133.25 Q 580 130.5 583.8 130.5 L 583.8 130.5 L 583.8 130.5 Q 585.5 130.5 587 131.15 L 587 131.15 L 587 131.15 Q 588.5 131.8 590.3 133.1 L 590.3 133.1 L 590.3 133.1 Q 592 134.2 593.05 134.7 L 593.05 134.7 L 593.05 134.7 Q 594.1 135.2 595.2 135.2 L 595.2 135.2 L 595.2 135.2 Q 596.9 135.2 597.7 134.2 L 597.7 134.2 L 597.7 134.2 Q 598.5 133.2 598.5 130.9 L 598.5 130.9 L 602.9 130.9 L 602.9 130.9 Q 602.9 134.6 601.45 137.35 L 601.45 137.35 L 601.45 137.35 Q 600 140.1 596 140.1 L 596 140.1 Z  M 629.1 210.2 L 629.1 210.2 Q 620.5 210.2 617.1 204.85 L 617.1 204.85 L 617.1 204.85 Q 613.7 199.5 613.7 188.4 L 613.7 188.4 L 613.7 172.4 L 613.7 172.4 Q 613.7 161.3 617.1 155.95 L 617.1 155.95 L 617.1 155.95 Q 620.5 150.6 629.1 150.6 L 629.1 150.6 L 629.1 150.6 Q 637.7 150.6 641.1 155.95 L 641.1 155.95 L 641.1 155.95 Q 644.5 161.3 644.5 172.4 L 644.5 172.4 L 644.5 188.4 L 644.5 188.4 Q 644.5 199.5 641.1 204.85 L 641.1 204.85 L 641.1 204.85 Q 637.7 210.2 629.1 210.2 L 629.1 210.2 Z  M 629.1 204.7 L 629.1 204.7 Q 632.7 204.7 634.45 202.8 L 634.45 202.8 L 634.45 202.8 Q 636.2 200.9 636.7 197.6 L 636.7 197.6 L 636.7 197.6 Q 637.2 194.3 637.2 188.8 L 637.2 188.8 L 637.2 172 L 637.2 172 Q 637.2 166.5 636.7 163.2 L 636.7 163.2 L 636.7 163.2 Q 636.2 159.9 634.45 158 L 634.45 158 L 634.45 158 Q 632.7 156.1 629.1 156.1 L 629.1 156.1 L 629.1 156.1 Q 625.5 156.1 623.75 158 L 623.75 158 L 623.75 158 Q 622 159.9 621.5 163.15 L 621.5 163.15 L 621.5 163.15 Q 621 166.4 621 172 L 621 172 L 621 188.8 L 621 188.8 Q 621 194.4 621.5 197.65 L 621.5 197.65 L 621.5 197.65 Q 622 200.9 623.75 202.8 L 623.75 202.8 L 623.75 202.8 Q 625.5 204.7 629.1 204.7 L 629.1 204.7 Z " fill-rule="evenodd" fill="rgb(199,218,255)"/></g><defs><filter id="tFmHDigAjzZ8usNeNgppKR5wmggximP2" x="-200%" y="-200%" width="400%" height="400%"><feOffset xmlns="http://www.w3.org/2000/svg" in="SourceAlpha" result="offOut" dx="4" dy="4"/><feGaussianBlur xmlns="http://www.w3.org/2000/svg" in="offOut" result="blurOut" stdDeviation="2.5"/><feComponentTransfer xmlns="http://www.w3.org/2000/svg" in="blurOut" result="opacOut"><feFuncA xmlns="http://www.w3.org/2000/svg" type="table" tableValues="0 0.5"/></feComponentTransfer><feBlend xmlns="http://www.w3.org/2000/svg" in="SourceGraphic" in2="opacOut" mode="normal"/></filter></defs><g filter="url(#tFmHDigAjzZ8usNeNgppKR5wmggximP2)"><path d=" M 743.57 304.58 L 743.57 255.98 L 763.97 255.98 L 763.97 262.22 L 752.39 262.22 L 752.39 276.2 L 761.51 276.2 L 761.51 282.38 L 752.39 282.38 L 752.39 298.52 L 764.09 298.52 L 764.09 304.58 L 743.57 304.58 Z  M 768.71 304.58 L 768.71 269.9 L 776.87 269.9 L 776.87 273.32 L 776.87 273.32 Q 781.01 269.36 785.27 269.36 L 785.27 269.36 L 785.27 269.36 Q 788.21 269.36 789.68 271.52 L 789.68 271.52 L 789.68 271.52 Q 791.15 273.68 791.15 276.98 L 791.15 276.98 L 791.15 304.58 L 782.99 304.58 L 782.99 278.6 L 782.99 278.6 Q 782.99 276.92 782.48 276.14 L 782.48 276.14 L 782.48 276.14 Q 781.97 275.36 780.65 275.36 L 780.65 275.36 L 780.65 275.36 Q 779.09 275.42 776.87 277.04 L 776.87 277.04 L 776.87 304.58 L 768.71 304.58 Z  M 809.15 315.14 L 809.15 315.14 Q 803.09 315.14 799.22 313.97 L 799.22 313.97 L 799.22 313.97 Q 795.35 312.8 795.35 309.08 L 795.35 309.08 L 795.35 309.08 Q 795.35 306.8 796.79 304.94 L 796.79 304.94 L 796.79 304.94 Q 798.23 303.08 800.33 301.76 L 800.33 301.76 L 800.33 301.76 Q 798.23 301.04 797.33 299.96 L 797.33 299.96 L 797.33 299.96 Q 796.43 298.88 796.43 297.44 L 796.43 297.44 L 796.43 297.44 Q 796.43 295.82 797.42 294.5 L 797.42 294.5 L 797.42 294.5 Q 798.41 293.18 800.51 291.38 L 800.51 291.38 L 800.51 291.38 Q 798.59 289.88 797.6 287.69 L 797.6 287.69 L 797.6 287.69 Q 796.61 285.5 796.61 281.9 L 796.61 281.9 L 796.61 281.9 Q 796.61 275.66 799.46 272.51 L 799.46 272.51 L 799.46 272.51 Q 802.31 269.36 807.65 269.36 L 807.65 269.36 L 807.65 269.36 Q 813.11 269.36 815.15 272.78 L 815.15 272.78 L 815.15 272.78 Q 817.37 270.2 819.89 269 L 819.89 269 L 821.03 268.52 L 822.95 272.9 L 822.95 272.9 Q 821.87 273.2 819.89 274.04 L 819.89 274.04 L 819.89 274.04 Q 817.91 274.88 817.13 275.42 L 817.13 275.42 L 817.13 275.42 Q 817.67 276.5 818.12 278.3 L 818.12 278.3 L 818.12 278.3 Q 818.57 280.1 818.57 281.96 L 818.57 281.96 L 818.57 281.96 Q 818.57 287.6 816.02 290.75 L 816.02 290.75 L 816.02 290.75 Q 813.47 293.9 808.01 293.9 L 808.01 293.9 L 808.01 293.9 Q 805.55 293.9 803.51 293.18 L 803.51 293.18 L 803.51 293.18 Q 802.25 294.86 802.37 295.7 L 802.37 295.7 L 802.37 295.7 Q 802.37 296.78 805.43 297.14 L 805.43 297.14 L 805.43 297.14 Q 806.27 297.32 809.75 297.68 L 809.75 297.68 L 809.75 297.68 Q 810.41 297.74 811.97 297.92 L 811.97 297.92 L 811.97 297.92 Q 816.47 298.46 818.51 300.5 L 818.51 300.5 L 818.51 300.5 Q 820.55 302.54 820.55 306.32 L 820.55 306.32 L 820.55 306.32 Q 820.55 310.76 817.85 312.95 L 817.85 312.95 L 817.85 312.95 Q 815.15 315.14 809.15 315.14 L 809.15 315.14 Z  M 807.71 288.74 L 807.71 288.74 Q 809.81 288.74 810.47 287.12 L 810.47 287.12 L 810.47 287.12 Q 811.13 285.5 811.13 281.66 L 811.13 281.66 L 811.13 281.66 Q 811.13 277.76 810.53 276.14 L 810.53 276.14 L 810.53 276.14 Q 809.93 274.52 807.77 274.52 L 807.77 274.52 L 807.77 274.52 Q 805.61 274.52 804.95 276.2 L 804.95 276.2 L 804.95 276.2 Q 804.29 277.88 804.29 281.66 L 804.29 281.66 L 804.29 281.66 Q 804.29 285.2 804.98 286.97 L 804.98 286.97 L 804.98 286.97 Q 805.67 288.74 807.71 288.74 L 807.71 288.74 Z  M 809.03 309.62 L 809.03 309.62 Q 811.67 309.62 812.9 308.96 L 812.9 308.96 L 812.9 308.96 Q 814.13 308.3 814.19 306.8 L 814.19 306.8 L 814.19 306.8 Q 814.31 305.18 813.41 304.43 L 813.41 304.43 L 813.41 304.43 Q 812.51 303.68 809.99 303.44 L 809.99 303.44 L 804.71 302.84 L 804.71 302.84 Q 803.81 303.86 803.24 304.82 L 803.24 304.82 L 803.24 304.82 Q 802.67 305.78 802.67 306.86 L 802.67 306.86 L 802.67 306.86 Q 802.67 308.36 803.99 308.99 L 803.99 308.99 L 803.99 308.99 Q 805.31 309.62 809.03 309.62 L 809.03 309.62 Z  M 825.53 264.38 L 825.53 257.6 L 833.69 257.6 L 833.69 264.38 L 825.53 264.38 Z  M 825.53 304.58 L 825.53 269.9 L 833.69 269.9 L 833.69 304.58 L 825.53 304.58 Z  M 840.17 304.58 L 840.17 269.9 L 848.33 269.9 L 848.33 273.32 L 848.33 273.32 Q 852.47 269.36 856.73 269.36 L 856.73 269.36 L 856.73 269.36 Q 859.67 269.36 861.14 271.52 L 861.14 271.52 L 861.14 271.52 Q 862.61 273.68 862.61 276.98 L 862.61 276.98 L 862.61 304.58 L 854.45 304.58 L 854.45 278.6 L 854.45 278.6 Q 854.45 276.92 853.94 276.14 L 853.94 276.14 L 853.94 276.14 Q 853.43 275.36 852.11 275.36 L 852.11 275.36 L 852.11 275.36 Q 850.55 275.42 848.33 277.04 L 848.33 277.04 L 848.33 304.58 L 840.17 304.58 Z  M 879.11 305.12 L 879.11 305.12 Q 873.35 305.12 870.65 301.91 L 870.65 301.91 L 870.65 301.91 Q 867.95 298.7 867.95 292.4 L 867.95 292.4 L 867.95 282.08 L 867.95 282.08 Q 867.95 275.72 870.68 272.54 L 870.68 272.54 L 870.68 272.54 Q 873.41 269.36 879.11 269.36 L 879.11 269.36 L 879.11 269.36 Q 884.99 269.36 887.42 272.66 L 887.42 272.66 L 887.42 272.66 Q 889.85 275.96 889.85 282.62 L 889.85 282.62 L 889.85 287.6 L 876.05 287.6 L 876.05 293 L 876.05 293 Q 876.05 296.24 876.62 297.74 L 876.62 297.74 L 876.62 297.74 Q 877.19 299.24 879.11 299.24 L 879.11 299.24 L 879.11 299.24 Q 880.73 299.24 881.42 298.13 L 881.42 298.13 L 881.42 298.13 Q 882.11 297.02 882.11 294.74 L 882.11 294.74 L 882.11 291.8 L 889.79 291.8 L 889.79 294.2 L 889.79 294.2 Q 889.79 299.54 887.09 302.33 L 887.09 302.33 L 887.09 302.33 Q 884.39 305.12 879.11 305.12 L 879.11 305.12 Z  M 876.05 283.58 L 882.11 283.58 L 882.11 280.28 L 882.11 280.28 Q 882.11 277.58 881.45 276.41 L 881.45 276.41 L 881.45 276.41 Q 880.79 275.24 879.11 275.24 L 879.11 275.24 L 879.11 275.24 Q 877.37 275.24 876.71 276.5 L 876.71 276.5 L 876.71 276.5 Q 876.05 277.76 876.05 281.18 L 876.05 281.18 L 876.05 283.58 Z  M 905.87 305.12 L 905.87 305.12 Q 900.11 305.12 897.41 301.91 L 897.41 301.91 L 897.41 301.91 Q 894.71 298.7 894.71 292.4 L 894.71 292.4 L 894.71 282.08 L 894.71 282.08 Q 894.71 275.72 897.44 272.54 L 897.44 272.54 L 897.44 272.54 Q 900.17 269.36 905.87 269.36 L 905.87 269.36 L 905.87 269.36 Q 911.75 269.36 914.18 272.66 L 914.18 272.66 L 914.18 272.66 Q 916.61 275.96 916.61 282.62 L 916.61 282.62 L 916.61 287.6 L 902.81 287.6 L 902.81 293 L 902.81 293 Q 902.81 296.24 903.38 297.74 L 903.38 297.74 L 903.38 297.74 Q 903.95 299.24 905.87 299.24 L 905.87 299.24 L 905.87 299.24 Q 907.49 299.24 908.18 298.13 L 908.18 298.13 L 908.18 298.13 Q 908.87 297.02 908.87 294.74 L 908.87 294.74 L 908.87 291.8 L 916.55 291.8 L 916.55 294.2 L 916.55 294.2 Q 916.55 299.54 913.85 302.33 L 913.85 302.33 L 913.85 302.33 Q 911.15 305.12 905.87 305.12 L 905.87 305.12 Z  M 902.81 283.58 L 908.87 283.58 L 908.87 280.28 L 908.87 280.28 Q 908.87 277.58 908.21 276.41 L 908.21 276.41 L 908.21 276.41 Q 907.55 275.24 905.87 275.24 L 905.87 275.24 L 905.87 275.24 Q 904.13 275.24 903.47 276.5 L 903.47 276.5 L 903.47 276.5 Q 902.81 277.76 902.81 281.18 L 902.81 281.18 L 902.81 283.58 Z  M 922.31 304.58 L 922.31 269.9 L 930.47 269.9 L 930.47 275.24 L 930.47 275.24 Q 933.71 269.48 937.73 269.48 L 937.73 269.48 L 937.73 269.48 Q 938.21 269.48 938.99 269.66 L 938.99 269.66 L 938.99 277.46 L 938.99 277.46 Q 937.73 277.04 936.47 277.04 L 936.47 277.04 L 936.47 277.04 Q 934.61 277.1 933.17 278 L 933.17 278 L 933.17 278 Q 931.73 278.9 930.47 280.88 L 930.47 280.88 L 930.47 304.58 L 922.31 304.58 Z  M 514.91 305.24 L 514.91 305.24 Q 507.35 305.24 504.2 301.01 L 504.2 301.01 L 504.2 301.01 Q 501.05 296.78 501.05 289.04 L 501.05 289.04 L 501.05 271.7 L 501.05 271.7 Q 501.05 263.72 504.17 259.58 L 504.17 259.58 L 504.17 259.58 Q 507.29 255.44 514.91 255.44 L 514.91 255.44 L 514.91 255.44 Q 522.05 255.44 525.05 259.04 L 525.05 259.04 L 525.05 259.04 Q 528.05 262.64 528.05 269.42 L 528.05 269.42 L 528.05 273.5 L 519.53 273.5 L 519.53 269.3 L 519.53 269.3 Q 519.53 266.72 519.29 265.25 L 519.29 265.25 L 519.29 265.25 Q 519.05 263.78 518.06 262.85 L 518.06 262.85 L 518.06 262.85 Q 517.07 261.92 514.97 261.92 L 514.97 261.92 L 514.97 261.92 Q 512.81 261.92 511.73 262.91 L 511.73 262.91 L 511.73 262.91 Q 510.65 263.9 510.32 265.55 L 510.32 265.55 L 510.32 265.55 Q 509.99 267.2 509.99 269.84 L 509.99 269.84 L 509.99 290.9 L 509.99 290.9 Q 509.99 295.04 511.07 296.87 L 511.07 296.87 L 511.07 296.87 Q 512.15 298.7 514.97 298.7 L 514.97 298.7 L 514.97 298.7 Q 517.01 298.7 518 297.74 L 518 297.74 L 518 297.74 Q 518.99 296.78 519.26 295.19 L 519.26 295.19 L 519.26 295.19 Q 519.53 293.6 519.53 290.96 L 519.53 290.96 L 519.53 286.58 L 528.05 286.58 L 528.05 290.48 L 528.05 290.48 Q 528.05 297.5 525.11 301.37 L 525.11 301.37 L 525.11 301.37 Q 522.17 305.24 514.91 305.24 L 514.91 305.24 Z  M 544.19 305.12 L 544.19 305.12 Q 538.61 305.12 535.82 302.03 L 535.82 302.03 L 535.82 302.03 Q 533.03 298.94 533.03 293.06 L 533.03 293.06 L 533.03 281.42 L 533.03 281.42 Q 533.03 275.54 535.82 272.45 L 535.82 272.45 L 535.82 272.45 Q 538.61 269.36 544.19 269.36 L 544.19 269.36 L 544.19 269.36 Q 549.77 269.36 552.56 272.48 L 552.56 272.48 L 552.56 272.48 Q 555.35 275.6 555.35 281.42 L 555.35 281.42 L 555.35 293.06 L 555.35 293.06 Q 555.35 298.88 552.56 302 L 552.56 302 L 552.56 302 Q 549.77 305.12 544.19 305.12 L 544.19 305.12 Z  M 544.19 299.48 L 544.19 299.48 Q 546.05 299.48 546.65 298.01 L 546.65 298.01 L 546.65 298.01 Q 547.25 296.54 547.25 293.66 L 547.25 293.66 L 547.25 280.88 L 547.25 280.88 Q 547.25 278 546.65 276.5 L 546.65 276.5 L 546.65 276.5 Q 546.05 275 544.19 275 L 544.19 275 L 544.19 275 Q 542.33 275 541.73 276.5 L 541.73 276.5 L 541.73 276.5 Q 541.13 278 541.13 280.88 L 541.13 280.88 L 541.13 293.66 L 541.13 293.66 Q 541.13 296.54 541.73 298.01 L 541.73 298.01 L 541.73 298.01 Q 542.33 299.48 544.19 299.48 L 544.19 299.48 Z  M 560.93 304.58 L 560.93 269.9 L 568.79 269.9 L 568.79 272.96 L 568.79 272.96 Q 572.27 269.3 576.95 269.3 L 576.95 269.3 L 576.95 269.3 Q 579.05 269.3 580.55 270.35 L 580.55 270.35 L 580.55 270.35 Q 582.05 271.4 582.77 273.5 L 582.77 273.5 L 582.77 273.5 Q 586.37 269.3 591.53 269.3 L 591.53 269.3 L 591.53 269.3 Q 594.41 269.3 596.18 271.4 L 596.18 271.4 L 596.18 271.4 Q 597.95 273.5 597.95 277.46 L 597.95 277.46 L 597.95 304.58 L 590.15 304.58 L 590.15 278.24 L 590.15 278.24 Q 590.15 276.38 589.55 275.57 L 589.55 275.57 L 589.55 275.57 Q 588.95 274.76 587.75 274.76 L 587.75 274.76 L 587.75 274.76 Q 586.79 274.76 585.59 275.3 L 585.59 275.3 L 585.59 275.3 Q 584.39 275.84 583.37 276.8 L 583.37 276.8 L 583.37 277.46 L 583.37 304.58 L 575.63 304.58 L 575.63 278.24 L 575.63 278.24 Q 575.63 276.38 575 275.57 L 575 275.57 L 575 275.57 Q 574.37 274.76 573.17 274.76 L 573.17 274.76 L 573.17 274.76 Q 572.21 274.76 571.04 275.3 L 571.04 275.3 L 571.04 275.3 Q 569.87 275.84 568.79 276.8 L 568.79 276.8 L 568.79 304.58 L 560.93 304.58 Z  M 604.01 315.98 L 604.01 269.9 L 612.17 269.9 L 612.17 272.54 L 612.17 272.54 Q 615.47 269.36 619.07 269.36 L 619.07 269.36 L 619.07 269.36 Q 623.39 269.36 625.16 272.81 L 625.16 272.81 L 625.16 272.81 Q 626.93 276.26 626.93 280.94 L 626.93 280.94 L 626.93 292.7 L 626.93 292.7 Q 626.93 298.28 624.98 301.7 L 624.98 301.7 L 624.98 301.7 Q 623.03 305.12 618.83 305.12 L 618.83 305.12 L 618.83 305.12 Q 615.47 305.12 612.17 302 L 612.17 302 L 612.17 315.98 L 604.01 315.98 Z  M 615.77 299.42 L 615.77 299.42 Q 617.51 299.42 618.14 297.74 L 618.14 297.74 L 618.14 297.74 Q 618.77 296.06 618.77 293 L 618.77 293 L 618.77 280.52 L 618.77 280.52 Q 618.77 274.82 615.71 274.82 L 615.71 274.82 L 615.71 274.82 Q 614.15 274.82 612.17 276.32 L 612.17 276.32 L 612.17 298.22 L 612.17 298.22 Q 613.85 299.42 615.77 299.42 L 615.77 299.42 Z  M 638.15 305.12 L 638.15 305.12 Q 635.21 305.12 633.77 302.96 L 633.77 302.96 L 633.77 302.96 Q 632.33 300.8 632.33 297.5 L 632.33 297.5 L 632.33 269.9 L 640.43 269.9 L 640.43 296 L 640.43 296 Q 640.43 297.62 640.97 298.46 L 640.97 298.46 L 640.97 298.46 Q 641.51 299.3 642.83 299.3 L 642.83 299.3 L 642.83 299.3 Q 644.33 299.24 646.49 297.68 L 646.49 297.68 L 646.49 269.9 L 654.65 269.9 L 654.65 304.58 L 646.49 304.58 L 646.49 301.28 L 646.49 301.28 Q 642.47 305.12 638.15 305.12 L 638.15 305.12 Z  M 670.49 305 L 670.49 305 Q 665.87 304.94 664.13 302.21 L 664.13 302.21 L 664.13 302.21 Q 662.39 299.48 662.33 294.5 L 662.33 294.5 L 662.33 275.24 L 658.85 275.24 L 658.85 269.9 L 662.33 269.9 L 662.33 259.52 L 670.55 259.52 L 670.55 269.9 L 675.77 269.9 L 675.77 275.24 L 670.55 275.24 L 670.55 295.22 L 670.55 295.22 Q 670.55 296.96 671.3 297.71 L 671.3 297.71 L 671.3 297.71 Q 672.05 298.46 673.67 298.52 L 673.67 298.52 L 673.67 298.52 Q 674.75 298.58 676.19 298.28 L 676.19 298.28 L 676.19 304.58 L 676.19 304.58 Q 673.25 305.06 670.49 305 L 670.49 305 Z  M 691.37 305.12 L 691.37 305.12 Q 685.61 305.12 682.91 301.91 L 682.91 301.91 L 682.91 301.91 Q 680.21 298.7 680.21 292.4 L 680.21 292.4 L 680.21 282.08 L 680.21 282.08 Q 680.21 275.72 682.94 272.54 L 682.94 272.54 L 682.94 272.54 Q 685.67 269.36 691.37 269.36 L 691.37 269.36 L 691.37 269.36 Q 697.25 269.36 699.68 272.66 L 699.68 272.66 L 699.68 272.66 Q 702.11 275.96 702.11 282.62 L 702.11 282.62 L 702.11 287.6 L 688.31 287.6 L 688.31 293 L 688.31 293 Q 688.31 296.24 688.88 297.74 L 688.88 297.74 L 688.88 297.74 Q 689.45 299.24 691.37 299.24 L 691.37 299.24 L 691.37 299.24 Q 692.99 299.24 693.68 298.13 L 693.68 298.13 L 693.68 298.13 Q 694.37 297.02 694.37 294.74 L 694.37 294.74 L 694.37 291.8 L 702.05 291.8 L 702.05 294.2 L 702.05 294.2 Q 702.05 299.54 699.35 302.33 L 699.35 302.33 L 699.35 302.33 Q 696.65 305.12 691.37 305.12 L 691.37 305.12 Z  M 688.31 283.58 L 694.37 283.58 L 694.37 280.28 L 694.37 280.28 Q 694.37 277.58 693.71 276.41 L 693.71 276.41 L 693.71 276.41 Q 693.05 275.24 691.37 275.24 L 691.37 275.24 L 691.37 275.24 Q 689.63 275.24 688.97 276.5 L 688.97 276.5 L 688.97 276.5 Q 688.31 277.76 688.31 281.18 L 688.31 281.18 L 688.31 283.58 Z  M 707.81 304.58 L 707.81 269.9 L 715.97 269.9 L 715.97 275.24 L 715.97 275.24 Q 719.21 269.48 723.23 269.48 L 723.23 269.48 L 723.23 269.48 Q 723.71 269.48 724.49 269.66 L 724.49 269.66 L 724.49 277.46 L 724.49 277.46 Q 723.23 277.04 721.97 277.04 L 721.97 277.04 L 721.97 277.04 Q 720.11 277.1 718.67 278 L 718.67 278 L 718.67 278 Q 717.23 278.9 715.97 280.88 L 715.97 280.88 L 715.97 304.58 L 707.81 304.58 Z " fill-rule="evenodd" fill="rgb(199,218,255)"/></g><defs><filter id="tVikosnhLASVIJgvLb5NeTonlGoZvB4b" x="-200%" y="-200%" width="400%" height="400%"><feOffset xmlns="http://www.w3.org/2000/svg" in="SourceAlpha" result="offOut" dx="5" dy="5"/><feGaussianBlur xmlns="http://www.w3.org/2000/svg" in="offOut" result="blurOut" stdDeviation="2.5"/><feComponentTransfer xmlns="http://www.w3.org/2000/svg" in="blurOut" result="opacOut"><feFuncA xmlns="http://www.w3.org/2000/svg" type="table" tableValues="0 0.5"/></feComponentTransfer><feBlend xmlns="http://www.w3.org/2000/svg" in="SourceGraphic" in2="opacOut" mode="normal"/></filter></defs><g filter="url(#tVikosnhLASVIJgvLb5NeTonlGoZvB4b)"><path d=" M 490 223 L 490 233 L 950 233 L 950 223 L 490 223 Z " fill="rgb(0,159,77)"/></g></g></svg>